<mxfile host="app.diagrams.net" modified="2024-03-06T02:20:03.506Z" agent="Mozilla/5.0 (Windows NT 10.0; Win64; x64) AppleWebKit/537.36 (KHTML, like Gecko) Chrome/121.0.0.0 Safari/537.36 OPR/107.0.0.0" etag="-N1BefsOFHVvojvANr0P" version="24.0.1" type="github">
  <diagram name="Page-1" id="TvkNehpnFoqfiiJ5ro8B">
    <mxGraphModel dx="1393" dy="835" grid="1" gridSize="10" guides="1" tooltips="1" connect="1" arrows="1" fold="1" page="1" pageScale="1" pageWidth="850" pageHeight="1100" math="0" shadow="0">
      <root>
        <mxCell id="0" />
        <mxCell id="1" parent="0" />
        <mxCell id="SPR6xQqvdri-gMilMysE-3" value="" style="edgeStyle=orthogonalEdgeStyle;rounded=0;orthogonalLoop=1;jettySize=auto;html=1;" edge="1" parent="1" source="SPR6xQqvdri-gMilMysE-1" target="SPR6xQqvdri-gMilMysE-2">
          <mxGeometry relative="1" as="geometry" />
        </mxCell>
        <mxCell id="SPR6xQqvdri-gMilMysE-1" value="Inicio" style="ellipse;whiteSpace=wrap;html=1;" vertex="1" parent="1">
          <mxGeometry x="365" y="80" width="120" height="80" as="geometry" />
        </mxCell>
        <mxCell id="SPR6xQqvdri-gMilMysE-5" value="" style="edgeStyle=orthogonalEdgeStyle;rounded=0;orthogonalLoop=1;jettySize=auto;html=1;" edge="1" parent="1" source="SPR6xQqvdri-gMilMysE-2" target="SPR6xQqvdri-gMilMysE-4">
          <mxGeometry relative="1" as="geometry" />
        </mxCell>
        <mxCell id="SPR6xQqvdri-gMilMysE-2" value="SOMA = 0" style="shape=parallelogram;perimeter=parallelogramPerimeter;whiteSpace=wrap;html=1;fixedSize=1;" vertex="1" parent="1">
          <mxGeometry x="365" y="210" width="120" height="60" as="geometry" />
        </mxCell>
        <mxCell id="SPR6xQqvdri-gMilMysE-7" value="" style="edgeStyle=orthogonalEdgeStyle;rounded=0;orthogonalLoop=1;jettySize=auto;html=1;" edge="1" parent="1" source="SPR6xQqvdri-gMilMysE-4" target="SPR6xQqvdri-gMilMysE-6">
          <mxGeometry relative="1" as="geometry" />
        </mxCell>
        <mxCell id="SPR6xQqvdri-gMilMysE-4" value="Ler num1, num2" style="shape=card;whiteSpace=wrap;html=1;" vertex="1" parent="1">
          <mxGeometry x="360" y="320" width="130" height="60" as="geometry" />
        </mxCell>
        <mxCell id="SPR6xQqvdri-gMilMysE-9" value="" style="edgeStyle=orthogonalEdgeStyle;rounded=0;orthogonalLoop=1;jettySize=auto;html=1;" edge="1" parent="1" source="SPR6xQqvdri-gMilMysE-6" target="SPR6xQqvdri-gMilMysE-8">
          <mxGeometry relative="1" as="geometry" />
        </mxCell>
        <mxCell id="SPR6xQqvdri-gMilMysE-6" value="SOMA = num1 + num2" style="rounded=1;whiteSpace=wrap;html=1;" vertex="1" parent="1">
          <mxGeometry x="361" y="430" width="128" height="60" as="geometry" />
        </mxCell>
        <mxCell id="SPR6xQqvdri-gMilMysE-12" value="" style="edgeStyle=orthogonalEdgeStyle;rounded=0;orthogonalLoop=1;jettySize=auto;html=1;" edge="1" parent="1" source="SPR6xQqvdri-gMilMysE-8" target="SPR6xQqvdri-gMilMysE-11">
          <mxGeometry relative="1" as="geometry" />
        </mxCell>
        <mxCell id="SPR6xQqvdri-gMilMysE-13" value="" style="edgeStyle=orthogonalEdgeStyle;rounded=0;orthogonalLoop=1;jettySize=auto;html=1;" edge="1" parent="1" source="SPR6xQqvdri-gMilMysE-8" target="SPR6xQqvdri-gMilMysE-10">
          <mxGeometry relative="1" as="geometry" />
        </mxCell>
        <mxCell id="SPR6xQqvdri-gMilMysE-8" value="SOMA &amp;gt;= 10" style="rhombus;whiteSpace=wrap;html=1;" vertex="1" parent="1">
          <mxGeometry x="373" y="530" width="105" height="100" as="geometry" />
        </mxCell>
        <mxCell id="SPR6xQqvdri-gMilMysE-10" value="Imprimir SOMA" style="shape=display;whiteSpace=wrap;html=1;" vertex="1" parent="1">
          <mxGeometry x="520" y="550" width="130" height="60" as="geometry" />
        </mxCell>
        <mxCell id="SPR6xQqvdri-gMilMysE-11" value="Imprimir:&lt;div&gt;Soma menor que 10&lt;/div&gt;" style="shape=display;whiteSpace=wrap;html=1;" vertex="1" parent="1">
          <mxGeometry x="360" y="680" width="130" height="60" as="geometry" />
        </mxCell>
        <mxCell id="SPR6xQqvdri-gMilMysE-14" value="Sim" style="text;html=1;align=center;verticalAlign=middle;resizable=0;points=[];autosize=1;strokeColor=none;fillColor=none;" vertex="1" parent="1">
          <mxGeometry x="478" y="550" width="40" height="30" as="geometry" />
        </mxCell>
        <mxCell id="SPR6xQqvdri-gMilMysE-15" value="NÃ£o" style="text;html=1;align=center;verticalAlign=middle;resizable=0;points=[];autosize=1;strokeColor=none;fillColor=none;" vertex="1" parent="1">
          <mxGeometry x="420" y="630" width="50" height="30" as="geometry" />
        </mxCell>
      </root>
    </mxGraphModel>
  </diagram>
</mxfile>
